<svg width="59" height="20" viewBox="0 0 59 20" fill="none"
    xmlns="http://www.w3.org/2000/svg">
    <g clip-path="url(#clip0)">
        <path d="M10 11.1999V11.9999H16.708C16.27 13.4686 15.3621 14.7529 14.1238 15.6557C12.8854 16.5586 11.3849 17.0301 9.85269 16.9978C8.32047 16.9656 6.84117 16.4314 5.64187 15.4772C4.44256 14.5231 3.58952 13.2017 3.2137 11.716C2.83788 10.2302 2.96004 8.66216 3.56142 7.25252C4.16281 5.84289 5.2102 4.66957 6.54281 3.91267C7.87541 3.15577 9.41959 2.85712 10.9383 3.06256C12.457 3.268 13.8664 3.96618 14.95 5.04993L17.072 2.92793C15.4363 1.2918 13.2839 0.273436 10.9816 0.0463513C8.6792 -0.180733 6.36933 0.39751 4.44551 1.68256C2.52169 2.96761 1.10296 4.87995 0.431041 7.09376C-0.240878 9.30757 -0.124411 11.6859 0.760598 13.8234C1.64561 15.961 3.2444 17.7256 5.28457 18.8165C7.32474 19.9074 9.68006 20.2572 11.9492 19.8063C14.2184 19.3553 16.261 18.1315 17.729 16.3434C19.197 14.5553 19.9996 12.3135 20 9.99993V8.99993H12.2C11.6165 8.99993 11.0569 9.23171 10.6444 9.64429C10.2318 10.0569 10 10.6165 10 11.1999Z" fill="#FFFFFF"></path>
        <path d="M34.57 9.2319C35.2206 8.44157 35.6332 7.48258 35.7596 6.46674C35.886 5.4509 35.721 4.42005 35.284 3.49437C34.8469 2.56868 34.1558 1.7863 33.291 1.23842C32.4263 0.690537 31.4237 0.399731 30.4 0.399902H22V19.5999H31.3C32.512 19.5997 33.6923 19.2132 34.6696 18.4965C35.647 17.7798 36.3704 16.7702 36.735 15.6144C37.0995 14.4586 37.0862 13.2166 36.6969 12.0689C36.3075 10.9212 35.5625 9.92741 34.57 9.2319ZM31.3 16.5999H25V3.3999H30.4C31.0365 3.3999 31.647 3.65276 32.0971 4.10285C32.5471 4.55293 32.8 5.16338 32.8 5.7999C32.8 6.43642 32.5471 7.04687 32.0971 7.49696C31.647 7.94705 31.0365 8.1999 30.4 8.1999H30.2C29.6165 8.1999 29.0569 8.43169 28.6444 8.84427C28.2318 9.25685 28 9.81643 28 10.3999V11.1999H31.3C32.0161 11.1999 32.7028 11.4844 33.2092 11.9907C33.7155 12.4971 34 13.1838 34 13.8999C34 14.616 33.7155 15.3027 33.2092 15.8091C32.7028 16.3154 32.0161 16.5999 31.3 16.5999Z" fill="#FFFFFF"></path>
        <path d="M50.6 8.99993C50.0165 8.99993 49.457 9.23171 49.0444 9.64429C48.6318 10.0569 48.4 10.6165 48.4 11.1999V11.9999H55.108C54.67 13.4686 53.7622 14.7529 52.5238 15.6557C51.2854 16.5586 49.7849 17.0301 48.2527 16.9978C46.7205 16.9656 45.2412 16.4314 44.0419 15.4772C42.8426 14.5231 41.9895 13.2017 41.6137 11.716C41.2379 10.2302 41.3601 8.66216 41.9614 7.25252C42.5628 5.84289 43.6102 4.66957 44.9428 3.91267C46.2754 3.15577 47.8196 2.85712 49.3383 3.06256C50.8571 3.268 52.2664 3.96618 53.35 5.04993L55.472 2.92793C53.8363 1.2918 51.6839 0.273436 49.3816 0.0463513C47.0792 -0.180733 44.7693 0.39751 42.8455 1.68256C40.9217 2.96761 39.503 4.87995 38.8311 7.09376C38.1591 9.30757 38.2756 11.6859 39.1606 13.8234C40.0456 15.961 41.6444 17.7256 43.6846 18.8165C45.7248 19.9074 48.0801 20.2572 50.3492 19.8063C52.6184 19.3553 54.661 18.1315 56.129 16.3434C57.597 14.5553 58.3996 12.3135 58.4 9.99993V8.99993H50.6Z" fill="#FFFFFF"></path>
    </g>
    <defs>
        <clipPath id="clip0">
            <rect width="58.4" height="20" fill="white"></rect>
        </clipPath>
    </defs>
</svg>